#
#
#

mtllib Cross.mtl


#
#  Mesh
#
g  Mesh


#
#  Mesh_MaterialCross.001
#
usemtl  Mesh_MaterialCross.001

v -0.103600 -0.102993 -0.011328
v -0.146910 -0.142921 0.022807
v -0.146910 -0.092324 0.022807
v -0.103600 -0.052396 -0.011328
v -0.002507 0.023062 0.022807
v 0.025278 -0.000000 0.022807
v 0.147899 0.101779 0.022807
v 0.147899 0.143245 0.022807
v -0.002507 -0.023062 0.022807
v -0.031368 -0.000000 0.022807
v 0.104107 0.057990 -0.011328
v 0.104107 0.099455 -0.011328
v -0.031931 0.000000 -0.011328
v -0.000429 -0.023031 -0.011328
v 0.029286 0.000000 -0.011328
v -0.000429 0.023031 -0.011328
v 0.026286 -0.002761 0.006301
v 0.028609 -0.002438 -0.001061
v 0.003464 -0.022563 0.002358
v -0.030358 0.003278 0.006957
v -0.032608 0.002828 -0.001692
v -0.006000 0.023527 0.001919
v -0.103600 0.102993 -0.011328
v -0.146910 0.142921 0.022807
v -0.146910 0.092324 0.022807
v -0.103600 0.052396 -0.011328
v 0.147899 -0.101779 0.022807
v 0.147899 -0.143245 0.022807
v 0.104107 -0.057990 -0.011328
v 0.104107 -0.099455 -0.011328
vn -0.618996 0.000000 -0.785394
vn 0.000000 -0.000000 1.000000
vn 0.614792 0.000000 -0.788689
vn 0.000000 0.000000 -1.000000
vn 0.630308 -0.765110 0.131602
vn 0.621341 -0.782652 -0.037303
vn -0.618803 0.781503 0.079600
vn -0.597307 0.791009 -0.132401
vn -0.625604 -0.778004 -0.057700
vn 0.607879 0.793973 0.009500
vn 0.618996 -0.000000 0.785394
vn -0.614792 -0.000000 0.788689
vn -0.627677 -0.777471 -0.039499
vn 0.610097 0.791296 0.040400
vt 0.375000 0.000000
vt 0.375000 0.250000
vt 0.625000 0.250000
vt 0.625000 0.000000
vt 0.625000 0.372455
vt 0.375000 0.396016
vt 0.375000 0.500000
vt 0.625000 0.500000
vt 0.375000 0.372455
vt 0.625000 0.347980
vt 0.375000 0.750000
vt 0.625000 0.750000
vt 0.625000 0.913738
vt 0.375000 0.875822
vt 0.375000 1.000000
vt 0.625000 1.000000
vt 0.375000 0.840056
vt 0.625000 0.875822
vt 0.271016 0.500000
vt 0.275552 0.621350
vt 0.279624 0.675463
vt 0.284944 0.750000
vt 0.249178 0.750000
vt 0.251682 0.650513
vt 0.247455 0.500000
vt 0.125000 0.500000
vt 0.125000 0.750000
vt 0.875000 0.500000
vt 0.777020 0.500000
vt 0.779945 0.615536
vt 0.784428 0.678610
vt 0.788738 0.750000
vt 0.875000 0.750000
vt 0.754571 0.652021
vt 0.752545 0.500000
vt 0.750822 0.750000
vt 0.234238 0.656158
vt 0.275168 0.676601
vt 0.266979 0.624232
vt 0.773473 0.612020
vt 0.739558 0.645770
vt 0.782434 0.677312
f 1/1/1 2/2/1 3/3/1 4/4/1
f 5/5/2 6/6/2 7/7/2 8/8/2
f 9/9/2 10/10/2 3/3/2 2/2/2
f 7/7/3 11/11/3 12/12/3 8/8/3
f 13/13/4 14/14/4 1/15/4 4/16/4
f 15/17/4 16/18/4 12/12/4 11/11/4
f 11/11/5 7/7/5 6/19/5 17/20/5 18/21/5 15/22/5
f 14/23/6 19/24/6 9/25/6 2/26/6 1/27/6
f 3/28/7 10/29/7 20/30/7 21/31/7 13/32/7 4/33/7
f 22/34/8 5/35/8 8/8/8 12/12/8 16/36/8
f 6/19/9 5/25/9 22/37/9 16/23/9 15/22/9 18/38/9 17/39/9
f 20/40/10 10/29/10 9/35/10 19/41/10 14/36/10 13/32/10 21/42/10
f 23/1/11 24/2/11 25/3/11 26/4/11
f 24/2/4 27/7/4 28/8/4 25/3/4
f 27/7/12 29/11/12 30/12/12 28/8/12
f 29/11/2 23/15/2 26/16/2 30/12/2
f 24/26/13 23/27/13 29/11/13 27/7/13
f 28/8/14 30/12/14 26/33/14 25/28/14
