#
#
#

mtllib Nought.mtl


#
#  Mesh
#
g  Mesh


#
#  Mesh_NOUGHT
#
usemtl  Mesh_NOUGHT

v 0.000000 0.141649 0.026181
v 0.000000 0.141649 0.020638
v -0.027634 0.138928 0.017900
v -0.027634 0.138928 0.026181
v -0.138928 0.027634 0.026181
v -0.138928 0.027634 0.016928
v -0.141649 -0.000000 0.017900
v -0.141649 -0.000000 0.026181
v 0.054207 -0.130867 0.026181
v 0.054207 -0.130867 0.014720
v 0.078696 -0.117777 0.004209
v 0.078696 -0.117777 0.026181
v -0.138928 -0.027634 0.026181
v -0.138928 -0.027634 0.015250
v -0.130867 -0.054207 0.011010
v -0.130867 -0.054207 0.026181
v 0.027634 -0.138928 0.026181
v 0.027634 -0.138928 0.020550
v -0.117777 -0.078696 -0.001709
v -0.117777 -0.078696 0.026181
v 0.000000 -0.141649 0.026181
v 0.000000 -0.141649 0.022405
v 0.078696 0.117777 0.026181
v 0.078696 0.117777 0.005004
v 0.054207 0.130867 0.013395
v 0.054207 0.130867 0.026181
v -0.100161 -0.100161 -0.011426
v -0.100161 -0.100161 0.026181
v 0.100161 0.100161 0.026181
v 0.100161 0.100161 -0.011426
v -0.027634 -0.138928 0.026181
v -0.027634 -0.138928 0.020285
v 0.117777 0.078696 0.026181
v 0.117777 0.078696 0.001471
v -0.078696 -0.117777 0.004650
v -0.078696 -0.117777 0.026181
v 0.130867 0.054207 0.026181
v 0.130867 0.054207 0.009774
v -0.054207 -0.130867 0.026181
v -0.054207 -0.130867 0.013218
v 0.138928 0.027634 0.026181
v 0.138928 0.027634 0.015162
v 0.141650 -0.000000 0.026181
v 0.141649 -0.000000 0.016928
v -0.130867 0.054207 0.026181
v -0.130867 0.054207 0.009774
v 0.138928 -0.027634 0.026181
v 0.138928 -0.027634 0.016840
v 0.130867 -0.054207 0.026181
v 0.130867 -0.054207 0.009420
v -0.078696 0.117777 0.026181
v -0.078696 0.117777 0.003856
v -0.100161 0.100161 -0.011426
v -0.100161 0.100161 0.026181
v 0.117777 -0.078696 0.026181
v 0.117777 -0.078696 0.001471
v -0.054207 0.130867 0.026181
v -0.054207 0.130867 0.012424
v -0.117777 0.078696 -0.001709
v -0.117777 0.078696 0.026181
v 0.100161 -0.100161 0.026181
v 0.100161 -0.100161 -0.011426
v 0.027634 0.138928 0.026181
v -0.000211 0.100972 0.026194
v -0.019948 0.099028 0.026194
v -0.019948 0.099028 -0.010706
v -0.000211 0.100972 -0.010706
v -0.099437 0.019540 0.026194
v -0.101381 -0.000197 0.026194
v -0.101381 -0.000197 -0.010706
v -0.099437 0.019540 -0.010706
v 0.038505 -0.093666 0.026194
v 0.055996 -0.084317 0.026194
v 0.055996 -0.084317 -0.010706
v 0.038505 -0.093666 -0.010706
v -0.099437 -0.019935 0.026194
v -0.093680 -0.038913 0.026194
v -0.093680 -0.038913 -0.010706
v -0.099437 -0.019935 -0.010706
v 0.019526 -0.099423 0.026194
v 0.019526 -0.099423 -0.010706
v -0.084330 -0.056404 0.026194
v -0.084331 -0.056404 -0.010706
v -0.000211 -0.101367 0.026194
v -0.000211 -0.101367 -0.010706
v 0.055996 0.083922 0.026194
v 0.038505 0.093271 0.026194
v 0.038505 0.093271 -0.010706
v 0.055996 0.083922 -0.010706
v -0.071749 -0.071735 0.026194
v -0.071749 -0.071735 -0.010706
v 0.071327 0.071340 0.026194
v 0.071327 0.071340 -0.010706
v -0.019948 -0.099423 0.026194
v -0.019948 -0.099423 -0.010706
v 0.083908 0.056010 0.026194
v 0.083908 0.056010 -0.010706
v -0.056418 -0.084317 0.026194
v -0.056418 -0.084317 -0.010706
v 0.093257 0.038519 0.026194
v 0.093257 0.038519 -0.010706
v -0.038927 -0.093666 0.026194
v -0.038927 -0.093666 -0.010706
v 0.099015 0.019540 0.026194
v 0.099015 0.019540 -0.010706
v 0.100959 -0.000197 0.026194
v 0.100959 -0.000197 -0.010706
v -0.093680 0.038519 0.026194
v -0.093680 0.038519 -0.010706
v 0.099015 -0.019935 0.026194
v 0.099015 -0.019935 -0.010706
v 0.093257 -0.038913 0.026194
v 0.093257 -0.038913 -0.010706
v -0.056418 0.083922 0.026194
v -0.071749 0.071340 0.026194
v -0.071749 0.071340 -0.010706
v -0.056418 0.083922 -0.010706
v 0.083908 -0.056404 0.026194
v 0.083908 -0.056404 -0.010706
v -0.038927 0.093271 0.026194
v -0.038927 0.093271 -0.010706
v -0.084330 0.056010 0.026194
v -0.084331 0.056010 -0.010706
v 0.071327 -0.071735 0.026194
v 0.071327 -0.071735 -0.010706
v 0.019526 0.099028 0.026194
vn -0.097999 0.995187 0.000000
vn -0.995187 0.097999 0.000000
vn 0.471408 -0.881915 -0.000000
vn -0.956933 -0.290310 -0.000000
vn 0.290310 -0.956933 -0.000000
vn -0.881915 -0.471408 -0.000000
vn 0.097999 -0.995187 -0.000000
vn 0.471408 0.881915 0.000000
vn -0.773003 -0.634402 -0.000000
vn 0.634402 0.773003 0.000000
vn -0.097999 -0.995187 -0.000000
vn 0.773003 0.634402 0.000000
vn -0.634402 -0.773003 -0.000000
vn 0.881915 0.471408 0.000000
vn -0.290310 -0.956933 -0.000000
vn 0.956933 0.290310 0.000000
vn -0.471408 -0.881915 -0.000000
vn 0.995187 0.097999 0.000000
vn -0.956933 0.290310 0.000000
vn 0.995187 -0.097999 -0.000000
vn -0.995187 -0.097999 -0.000000
vn 0.956933 -0.290310 -0.000000
vn -0.634402 0.773003 0.000000
vn 0.881915 -0.471408 -0.000000
vn -0.471408 0.881915 0.000000
vn -0.773003 0.634402 0.000000
vn 0.773003 -0.634402 -0.000000
vn -0.290310 0.956933 0.000000
vn -0.881915 0.471408 0.000000
vn 0.634402 -0.773003 -0.000000
vn 0.193007 0.970138 -0.146906
vn 0.097999 0.995187 0.000000
vn 0.290310 0.956933 0.000000
vn -0.195010 -0.980449 0.026301
vn -0.564010 -0.009400 -0.825715
vn 0.000100 0.000300 1.000000
vn 0.132201 0.314502 -0.940006
vn 0.000200 0.000300 1.000000
vn -0.054399 0.443389 -0.894677
vn -0.063299 0.541088 -0.838581
vn 0.000300 0.000200 1.000000
vn -0.012300 0.596108 -0.802810
vn 0.049601 0.570614 -0.819719
vn 0.000300 0.000100 1.000000
vn 0.067403 0.457720 -0.886538
vn 0.000300 -0.000000 1.000000
vn -0.139105 0.337112 -0.931132
vn 0.268788 -0.114595 -0.956358
vn 0.000300 -0.000100 1.000000
vn 0.400585 0.032999 -0.915665
vn 0.000300 -0.000200 1.000000
vn -0.000300 0.000200 1.000000
vn 0.501199 0.049800 -0.863898
vn 0.551223 0.023201 -0.834035
vn 0.000200 -0.000300 1.000000
vn -0.000300 -0.000000 1.000000
vn 0.560689 -0.053699 -0.826284
vn -0.000300 -0.000100 1.000000
vn 0.519722 -0.018501 -0.854135
vn 0.000100 -0.000300 1.000000
vn -0.000300 -0.000200 1.000000
vn 0.395091 -0.037399 -0.917880
vn 0.000000 -0.000300 1.000000
vn 0.267999 0.115299 -0.956495
vn -0.204804 -0.089302 -0.974721
vn -0.131697 -0.324491 -0.936676
vn -0.401401 -0.035800 -0.915202
vn -0.000200 -0.000300 1.000000
vn 0.037201 -0.480110 -0.876419
vn -0.573064 0.039698 -0.818549
vn -0.000100 -0.000300 1.000000
vn 0.071400 -0.578297 -0.812696
vn -0.510191 -0.074999 -0.856785
vn 0.031101 -0.625612 -0.779515
vn -0.420389 0.049799 -0.905976
vn -0.000300 0.000100 1.000000
vn -0.204103 0.089901 -0.974813
vn -0.026600 -0.624596 -0.780495
vn -0.000200 0.000300 1.000000
vn 0.135594 -0.331785 -0.933559
vn -0.046600 -0.572195 -0.818793
vn -0.000100 0.000300 1.000000
vn -0.064201 -0.458608 -0.886316
vn -0.000000 0.000300 1.000000
vn -0.525572 0.025899 -0.850355
vt 0.000000 0.000000
f 1/1/1 2/1/1 3/1/1 4/1/1
f 5/1/2 6/1/2 7/1/2 8/1/2
f 9/1/3 10/1/3 11/1/3 12/1/3
f 13/1/4 14/1/4 15/1/4 16/1/4
f 17/1/5 18/1/5 10/1/5 9/1/5
f 16/1/6 15/1/6 19/1/6 20/1/6
f 21/1/7 22/1/7 18/1/7 17/1/7
f 23/1/8 24/1/8 25/1/8 26/1/8
f 20/1/9 19/1/9 27/1/9 28/1/9
f 29/1/10 30/1/10 24/1/10 23/1/10
f 31/1/11 32/1/11 22/1/11 21/1/11
f 33/1/12 34/1/12 30/1/12 29/1/12
f 28/1/13 27/1/13 35/1/13 36/1/13
f 37/1/14 38/1/14 34/1/14 33/1/14
f 39/1/15 40/1/15 32/1/15 31/1/15
f 41/1/16 42/1/16 38/1/16 37/1/16
f 36/1/17 35/1/17 40/1/17 39/1/17
f 43/1/18 44/1/18 42/1/18 41/1/18
f 45/1/19 46/1/19 6/1/19 5/1/19
f 47/1/20 48/1/20 44/1/20 43/1/20
f 8/1/21 7/1/21 14/1/21 13/1/21
f 49/1/22 50/1/22 48/1/22 47/1/22
f 51/1/23 52/1/23 53/1/23 54/1/23
f 55/1/24 56/1/24 50/1/24 49/1/24
f 57/1/25 58/1/25 52/1/25 51/1/25
f 54/1/26 53/1/26 59/1/26 60/1/26
f 61/1/27 62/1/27 56/1/27 55/1/27
f 4/1/28 3/1/28 58/1/28 57/1/28
f 60/1/29 59/1/29 46/1/29 45/1/29
f 12/1/30 11/1/30 62/1/30 61/1/30
f 26/1/31 25/1/31 2/1/31 1/1/31 63/1/31
f 64/1/7 65/1/7 66/1/7 67/1/7
f 68/1/20 69/1/20 70/1/20 71/1/20
f 72/1/25 73/1/25 74/1/25 75/1/25
f 76/1/16 77/1/16 78/1/16 79/1/16
f 80/1/28 72/1/28 75/1/28 81/1/28
f 77/1/14 82/1/14 83/1/14 78/1/14
f 84/1/1 80/1/1 81/1/1 85/1/1
f 86/1/17 87/1/17 88/1/17 89/1/17
f 82/1/12 90/1/12 91/1/12 83/1/12
f 92/1/13 86/1/13 89/1/13 93/1/13
f 94/1/32 84/1/32 85/1/32 95/1/32
f 96/1/9 92/1/9 93/1/9 97/1/9
f 90/1/10 98/1/10 99/1/10 91/1/10
f 100/1/6 96/1/6 97/1/6 101/1/6
f 102/1/33 94/1/33 95/1/33 103/1/33
f 104/1/4 100/1/4 101/1/4 105/1/4
f 98/1/8 102/1/8 103/1/8 99/1/8
f 106/1/21 104/1/21 105/1/21 107/1/21
f 108/1/22 68/1/22 71/1/22 109/1/22
f 110/1/2 106/1/2 107/1/2 111/1/2
f 69/1/18 76/1/18 79/1/18 70/1/18
f 112/1/19 110/1/19 111/1/19 113/1/19
f 114/1/30 115/1/30 116/1/30 117/1/30
f 118/1/29 112/1/29 113/1/29 119/1/29
f 120/1/3 114/1/3 117/1/3 121/1/3
f 115/1/27 122/1/27 123/1/27 116/1/27
f 124/1/26 118/1/26 119/1/26 125/1/26
f 65/1/5 120/1/5 121/1/5 66/1/5
f 122/1/24 108/1/24 109/1/24 123/1/24
f 73/1/23 124/1/23 125/1/23 74/1/23
f 87/1/34 126/1/34 64/1/34 67/1/34 88/1/34
f 14/1/35 7/1/35 70/1/35 79/1/35
f 26/1/36 63/1/36 126/1/36 87/1/36
f 53/1/37 52/1/37 117/1/37 116/1/37
f 23/1/38 26/1/38 87/1/38 86/1/38
f 52/1/39 58/1/39 121/1/39 117/1/39
f 29/1/38 23/1/38 86/1/38 92/1/38
f 58/1/40 3/1/40 66/1/40 121/1/40
f 33/1/41 29/1/41 92/1/41 96/1/41
f 3/1/42 2/1/42 67/1/42 66/1/42
f 37/1/41 33/1/41 96/1/41 100/1/41
f 2/1/43 25/1/43 88/1/43 67/1/43
f 41/1/44 37/1/44 100/1/44 104/1/44
f 25/1/45 24/1/45 89/1/45 88/1/45
f 43/1/46 41/1/46 104/1/46 106/1/46
f 24/1/47 30/1/47 93/1/47 89/1/47
f 47/1/46 43/1/46 106/1/46 110/1/46
f 30/1/48 34/1/48 97/1/48 93/1/48
f 49/1/49 47/1/49 110/1/49 112/1/49
f 34/1/50 38/1/50 101/1/50 97/1/50
f 55/1/51 49/1/51 112/1/51 118/1/51
f 54/1/52 60/1/52 122/1/52 115/1/52
f 38/1/53 42/1/53 105/1/53 101/1/53
f 61/1/51 55/1/51 118/1/51 124/1/51
f 60/1/52 45/1/52 108/1/52 122/1/52
f 42/1/54 44/1/54 107/1/54 105/1/54
f 12/1/55 61/1/55 124/1/55 73/1/55
f 5/1/56 8/1/56 69/1/56 68/1/56
f 44/1/57 48/1/57 111/1/57 107/1/57
f 9/1/55 12/1/55 73/1/55 72/1/55
f 13/1/58 16/1/58 77/1/58 76/1/58
f 48/1/59 50/1/59 113/1/59 111/1/59
f 17/1/60 9/1/60 72/1/60 80/1/60
f 16/1/61 20/1/61 82/1/61 77/1/61
f 50/1/62 56/1/62 119/1/62 113/1/62
f 21/1/63 17/1/63 80/1/63 84/1/63
f 20/1/61 28/1/61 90/1/61 82/1/61
f 56/1/64 62/1/64 125/1/64 119/1/64
f 59/1/65 53/1/65 116/1/65 123/1/65
f 31/1/63 21/1/63 84/1/63 94/1/63
f 62/1/66 11/1/66 74/1/66 125/1/66
f 46/1/67 59/1/67 123/1/67 109/1/67
f 28/1/68 36/1/68 98/1/68 90/1/68
f 11/1/69 10/1/69 75/1/69 74/1/69
f 7/1/70 6/1/70 71/1/70 70/1/70
f 39/1/71 31/1/71 94/1/71 102/1/71
f 10/1/72 18/1/72 81/1/72 75/1/72
f 15/1/73 14/1/73 79/1/73 78/1/73
f 36/1/68 39/1/68 102/1/68 98/1/68
f 18/1/74 22/1/74 85/1/74 81/1/74
f 19/1/75 15/1/75 78/1/75 83/1/75
f 45/1/76 5/1/76 68/1/76 108/1/76
f 27/1/77 19/1/77 83/1/77 91/1/77
f 8/1/56 13/1/56 76/1/56 69/1/56
f 22/1/78 32/1/78 95/1/78 85/1/78
f 51/1/79 54/1/79 115/1/79 114/1/79
f 35/1/80 27/1/80 91/1/80 99/1/80
f 57/1/79 51/1/79 114/1/79 120/1/79
f 32/1/81 40/1/81 103/1/81 95/1/81
f 4/1/82 57/1/82 120/1/82 65/1/82
f 40/1/83 35/1/83 99/1/83 103/1/83
f 1/1/84 4/1/84 65/1/84 64/1/84
f 6/1/85 46/1/85 109/1/85 71/1/85
f 63/1/84 1/1/84 64/1/84 126/1/84
